<svg width="17" height="17" viewBox="0 0 17 17" fill="none" xmlns="http://www.w3.org/2000/svg">
<path d="M1.5 10.2604C1.5 8.94299 2.56799 7.875 3.88542 7.875V7.875C4.52333 7.875 5.0995 7.49382 5.34901 6.90674L7.36447 2.16449C7.50349 1.83738 7.82452 1.625 8.17994 1.625V1.625C9.24041 1.625 10.0635 2.55014 9.94003 3.6034L9.74574 5.26136C9.66066 5.98734 10.228 6.625 10.9589 6.625H12.164C14.074 6.625 15.4976 8.38605 15.0974 10.2536L14.5082 13.0036C14.2118 14.3868 12.9894 15.375 11.5748 15.375H4.5C2.84315 15.375 1.5 14.0319 1.5 12.375V10.2604Z" stroke="#2A00A2" stroke-width="2"/>
<path d="M5.25 7.25V15.375" stroke="#2A00A2" stroke-width="2"/>
</svg>
